<svg id="圖層_1" data-name="圖層 1" xmlns="http://www.w3.org/2000/svg" viewBox="0 0 16 16"><defs><style>.cls-1{fill:#0e9e78;}</style></defs><title>cancel</title><path class="cls-1" d="M15.62.38a1.37,1.37,0,0,0-1-.38,1.41,1.41,0,0,0-1,.38L8,6.14,2.3.46A1.29,1.29,0,0,0,1.36.08,1.27,1.27,0,0,0,.42.46,1.27,1.27,0,0,0,0,1.4a1.27,1.27,0,0,0,.38.94L6.1,8,.38,13.7a1.41,1.41,0,0,0-.38,1,1.37,1.37,0,0,0,.38,1,1.37,1.37,0,0,0,1,.38,1.41,1.41,0,0,0,1-.38L8,9.9l5.68,5.68a1.32,1.32,0,0,0,2.26-.94,1.29,1.29,0,0,0-.38-.94L9.86,8,15.62,2.3a1.41,1.41,0,0,0,.38-1A1.37,1.37,0,0,0,15.62.38Z"/></svg>