<?xml version="1.0" encoding="utf-8"?>
<!-- Generator: Adobe Illustrator 22.1.0, SVG Export Plug-In . SVG Version: 6.00 Build 0)  -->
<svg version="1.1" id="圖層_1" xmlns="http://www.w3.org/2000/svg" xmlns:xlink="http://www.w3.org/1999/xlink" x="0px" y="0px"
	 viewBox="0 0 170 36" style="enable-background:new 0 0 170 36;" xml:space="preserve">
<style type="text/css">
	.st0{clip-path:url(#SVGID_2_);}
	.st1{clip-path:url(#SVGID_4_);fill:#00CC99;}
	.st2{clip-path:url(#SVGID_6_);}
	.st3{clip-path:url(#SVGID_8_);fill:#00CC99;}
	.st4{clip-path:url(#SVGID_10_);}
	.st5{clip-path:url(#SVGID_12_);fill:#00CC99;}
	.st6{clip-path:url(#SVGID_14_);}
	.st7{clip-path:url(#SVGID_16_);fill:#00CC99;}
	.st8{clip-path:url(#SVGID_18_);}
	.st9{clip-path:url(#SVGID_20_);fill:#00CC99;}
	.st10{clip-path:url(#SVGID_22_);}
	.st11{clip-path:url(#SVGID_24_);fill:#00CC99;}
	.st12{clip-path:url(#SVGID_26_);}
	.st13{clip-path:url(#SVGID_28_);fill:#00CC99;}
	.st14{clip-path:url(#SVGID_30_);}
	.st15{clip-path:url(#SVGID_32_);fill:#00CC99;}
	.st16{clip-path:url(#SVGID_34_);}
	.st17{clip-path:url(#SVGID_36_);fill:#00CC99;}
	.st18{clip-path:url(#SVGID_38_);}
	.st19{clip-path:url(#SVGID_40_);fill:#00CC99;}
	.st20{clip-path:url(#SVGID_42_);}
	.st21{clip-path:url(#SVGID_44_);fill:#00CC99;}
	.st22{clip-path:url(#SVGID_46_);}
	.st23{clip-path:url(#SVGID_48_);fill:#00CC99;}
	.st24{clip-path:url(#SVGID_50_);}
	.st25{clip-path:url(#SVGID_52_);fill:#00CC99;}
	.st26{clip-path:url(#SVGID_54_);}
	.st27{clip-path:url(#SVGID_56_);fill:#00CC99;}
	.st28{clip-path:url(#SVGID_58_);}
	.st29{clip-path:url(#SVGID_60_);fill:#00CC99;}
	.st30{clip-path:url(#SVGID_62_);}
	.st31{clip-path:url(#SVGID_64_);fill:#00CC99;}
	.st32{clip-path:url(#SVGID_66_);}
	.st33{clip-path:url(#SVGID_68_);fill:#00CC99;}
	.st34{clip-path:url(#SVGID_70_);}
	.st35{clip-path:url(#SVGID_72_);fill:#00CC99;}
	.st36{clip-path:url(#SVGID_74_);}
	.st37{clip-path:url(#SVGID_76_);fill:#00CC99;}
	.st38{clip-path:url(#SVGID_78_);}
	.st39{clip-path:url(#SVGID_80_);fill:#00CC99;}
	.st40{clip-path:url(#SVGID_82_);}
	.st41{clip-path:url(#SVGID_84_);fill:#00CC99;}
	.st42{clip-path:url(#SVGID_86_);}
	.st43{clip-path:url(#SVGID_88_);fill:#00CC99;}
	.st44{clip-path:url(#SVGID_90_);}
	.st45{clip-path:url(#SVGID_92_);fill:#00CC99;}
	.st46{clip-path:url(#SVGID_94_);}
	.st47{clip-path:url(#SVGID_96_);fill:#00CC99;}
</style>
<g>
	<g>
		<defs>
			<path id="SVGID_1_" d="M49.4,15.7l-8-13.9c-0.6-1.1-2.2-2-3.4-2h-16c-1.3,0-2.8,0.9-3.4,2l-8,13.9c-0.6,1.1-0.6,2.9,0,4l8,13.9
				c0.6,1.1,2.2,2,3.4,2h16c1.3,0,2.8-0.9,3.4-2l8-13.9C50,18.5,50,16.8,49.4,15.7 M46.1,18.3l-7.5,13c-0.2,0.3-0.8,0.7-1.2,0.7h-15
				c-0.3,0-1-0.4-1.2-0.7l-7.5-13c-0.2-0.3-0.2-1.1,0-1.4l7.5-13c0.2-0.3,0.8-0.7,1.2-0.7h15c0.3,0,1,0.4,1.2,0.7l7.5,13
				C46.3,17.3,46.3,18,46.1,18.3"/>
		</defs>
		<clipPath id="SVGID_2_">
			<use xlink:href="#SVGID_1_"  style="overflow:visible;"/>
		</clipPath>
		<g class="st0">
			<defs>
				<rect id="SVGID_3_" x="1.8" y="-23.6" width="166.2" height="83.1"/>
			</defs>
			<clipPath id="SVGID_4_">
				<use xlink:href="#SVGID_3_"  style="overflow:visible;"/>
			</clipPath>
			<rect x="9.3" y="-0.9" class="st1" width="41.2" height="37.1"/>
		</g>
	</g>
	<g>
		<defs>
			<rect id="SVGID_5_" x="18" y="17.9" width="11.9" height="2.5"/>
		</defs>
		<clipPath id="SVGID_6_">
			<use xlink:href="#SVGID_5_"  style="overflow:visible;"/>
		</clipPath>
		<g class="st2">
			<defs>
				<rect id="SVGID_7_" x="1.8" y="-23.6" width="166.2" height="83.1"/>
			</defs>
			<clipPath id="SVGID_8_">
				<use xlink:href="#SVGID_7_"  style="overflow:visible;"/>
			</clipPath>
			<rect x="17.3" y="17.2" class="st3" width="13.3" height="3.9"/>
		</g>
	</g>
	<g>
		<defs>
			<rect id="SVGID_9_" x="20.4" y="22.4" width="9.6" height="2.5"/>
		</defs>
		<clipPath id="SVGID_10_">
			<use xlink:href="#SVGID_9_"  style="overflow:visible;"/>
		</clipPath>
		<g class="st4">
			<defs>
				<rect id="SVGID_11_" x="1.8" y="-23.6" width="166.2" height="83.1"/>
			</defs>
			<clipPath id="SVGID_12_">
				<use xlink:href="#SVGID_11_"  style="overflow:visible;"/>
			</clipPath>
			<rect x="19.7" y="21.7" class="st5" width="10.9" height="3.9"/>
		</g>
	</g>
	<g>
		<defs>
			<rect id="SVGID_13_" x="22.7" y="26.9" width="7.2" height="2.5"/>
		</defs>
		<clipPath id="SVGID_14_">
			<use xlink:href="#SVGID_13_"  style="overflow:visible;"/>
		</clipPath>
		<g class="st6">
			<defs>
				<rect id="SVGID_15_" x="1.8" y="-23.6" width="166.2" height="83.1"/>
			</defs>
			<clipPath id="SVGID_16_">
				<use xlink:href="#SVGID_15_"  style="overflow:visible;"/>
			</clipPath>
			<rect x="22" y="26.3" class="st7" width="8.6" height="3.9"/>
		</g>
	</g>
	<g>
		<defs>
			<path id="SVGID_17_" d="M77.6,12.8L77.6,12.8c0,0.5-0.2,0.7-0.6,0.7H58.9c-0.4,0-0.6-0.2-0.6-0.6v0c0-0.4,0.2-0.6,0.6-0.6h7.9
				V8.5c0-0.4,0.2-0.6,0.6-0.6h1.1c0.4,0,0.6,0.2,0.6,0.6v3.6H77C77.4,12.1,77.6,12.4,77.6,12.8 M65.2,17.4
				c-1.1,3.4-2.6,6.6-4.6,9.6c-0.2,0.3-0.5,0.4-0.8,0.2l-0.7-0.4c-0.4-0.2-0.4-0.5-0.2-0.8c1.7-2.7,3.2-5.8,4.2-9.3
				c0.1-0.4,0.4-0.5,0.8-0.4l1,0.3C65.2,16.8,65.3,17,65.2,17.4 M72.3,16.5c1.9,3.3,3.6,6.5,4.9,9.6c0.2,0.4,0,0.7-0.3,0.8L76,27.3
				c-0.4,0.2-0.6,0-0.8-0.3c-1.4-3.4-3-6.6-4.7-9.5c-0.2-0.4-0.1-0.7,0.2-0.8l0.7-0.4C71.9,16.1,72.1,16.2,72.3,16.5"/>
		</defs>
		<clipPath id="SVGID_18_">
			<use xlink:href="#SVGID_17_"  style="overflow:visible;"/>
		</clipPath>
		<g class="st8">
			<defs>
				<rect id="SVGID_19_" x="1.8" y="-23.6" width="166.2" height="83.1"/>
			</defs>
			<clipPath id="SVGID_20_">
				<use xlink:href="#SVGID_19_"  style="overflow:visible;"/>
			</clipPath>
			<rect x="57.5" y="7.2" class="st9" width="20.8" height="20.8"/>
		</g>
	</g>
	<g>
		<defs>
			<path id="SVGID_21_" d="M92.6,8.2c-0.1,0.2-0.2,0.4-0.3,0.7h6.9c0.4,0,0.6,0.2,0.6,0.6v0c0,0.3-0.1,0.5-0.2,0.8
				c-0.5,0.6-1.2,1.4-2.2,2.2h6.1c0.4,0,0.6,0.2,0.6,0.6v11.9c0,2.4-0.3,2.7-3,2.7c-0.3,0-1.2,0-2.7-0.1c-0.4,0-0.6-0.2-0.6-0.6
				c0-0.4,0.2-0.6,0.6-0.6c1.5,0,2.3,0.1,2.5,0.1c1,0,1,0,1-1.5v-2.6H89.2c-0.3,1.9-1,3.6-2.1,5.2c-0.2,0.3-0.5,0.4-0.9,0.1
				l-0.7-0.5c-0.3-0.2-0.3-0.5-0.2-0.8c1.4-2.3,1.9-5,1.9-9.6V15l-1,0.8c-0.3,0.3-0.7,0.2-0.8-0.2l-0.2-0.5
				c-0.2-0.3-0.1-0.6,0.2-0.8c2.1-1.8,3.8-4,5-6.6c0.2-0.3,0.4-0.5,0.8-0.4l0.8,0.2C92.6,7.5,92.7,7.8,92.6,8.2z M89.4,21.4h4.9
				v-3.4h-4.6C89.6,19.3,89.6,20.4,89.4,21.4z M89.7,17h4.6v-3.2h-4.6V17z M89.8,12.6H95c0.7-0.7,1.5-1.5,2.5-2.6h-5.8
				C91.2,10.7,90.6,11.6,89.8,12.6z M96.5,17h5.3v-3.2h-5.3V17z M96.5,21.4h5.3v-3.4h-5.3V21.4z"/>
		</defs>
		<clipPath id="SVGID_22_">
			<use xlink:href="#SVGID_21_"  style="overflow:visible;"/>
		</clipPath>
		<g class="st10">
			<defs>
				<rect id="SVGID_23_" x="1.8" y="-23.6" width="166.2" height="83.1"/>
			</defs>
			<clipPath id="SVGID_24_">
				<use xlink:href="#SVGID_23_"  style="overflow:visible;"/>
			</clipPath>
			<rect x="84.6" y="6.6" class="st11" width="20.1" height="22.1"/>
		</g>
	</g>
	<g>
		<defs>
			<path id="SVGID_25_" d="M129,19.6c0,0.3-0.1,0.5-0.4,0.7c-1.5,0.9-3.3,1.8-5.4,2.7h8.8c0.4,0,0.6,0.2,0.6,0.6
				c0,0.3-0.2,0.5-0.6,0.5h-8.1v2.3c0,1.3-0.3,1.5-3,1.5c-0.9,0-2,0-3.2-0.1c-0.4,0-0.6-0.2-0.6-0.6c0-0.4,0.2-0.6,0.6-0.6
				c1.5,0,2.4,0.1,2.9,0.1c1,0,0.9,0.1,0.9-0.9v-1.8h-8.8c-0.4,0-0.6-0.2-0.6-0.6c0-0.3,0.2-0.5,0.6-0.5h8.8v-0.4
				c0-0.4,0.2-0.6,0.6-0.6h0.6c1.1-0.5,2.3-1,3.8-1.8h-10.3c-0.4,0-0.6-0.2-0.6-0.6c0-0.3,0.2-0.4,0.6-0.4h12.1
				C128.8,19.1,129,19.3,129,19.6 M113.8,9.1c1.3-0.1,2.8-0.4,4.6-0.7c0.4-0.1,0.7,0.1,0.7,0.5c0.1,0.4-0.1,0.6-0.5,0.7
				c-1,0.2-2.1,0.4-3.1,0.5l0,1.2h2.8c0.4,0,0.6,0.2,0.6,0.6c0,0.2-0.2,0.3-0.6,0.3h-2.8l0.1,1.7h2.7c0.4,0,0.6,0.2,0.6,0.6
				c0,0.2-0.2,0.3-0.6,0.3h-2.7l0.1,1.7h13.1l0-1.7h-2.7c-0.4,0-0.6-0.2-0.6-0.6c0-0.2,0.2-0.3,0.6-0.3h2.7l0-1.7h-2.7
				c-0.4,0-0.6-0.2-0.6-0.6c0-0.2,0.2-0.3,0.6-0.3h2.8l0.1-1.6h-3c-0.4,0-0.6-0.2-0.6-0.6c0-0.3,0.2-0.5,0.6-0.5h4.7
				c0.4,0,0.6,0.2,0.6,0.6l-0.3,7.2h0.7c0.4,0,0.6,0.2,0.6,0.6v2.5c0,0.4-0.2,0.6-0.6,0.6h-1c-0.4,0-0.6-0.2-0.6-0.6v-2.1h-15.8v2.1
				c0,0.4-0.2,0.6-0.6,0.6h-1c-0.4,0-0.6-0.2-0.6-0.6v-2.5c0-0.4,0.2-0.6,0.6-0.6h0.7l-0.3-6.7C113.2,9.4,113.4,9.2,113.8,9.1
				 M125.1,8.6c-0.3,0.3-0.7,0.7-1.3,1.1l1.2,0.8c0.3,0.2,0.4,0.5,0.1,0.9l-0.3,0.3l0,0c0.4,0.2,0.5,0.5,0.2,0.8
				c-0.3,0.4-0.8,0.7-1.3,1.1l1.2,0.8c0.3,0.2,0.4,0.5,0.1,0.9l-0.1,0.1c-0.2,0.3-0.5,0.3-0.9,0.1c-0.7-0.5-1.2-0.9-1.5-1.1
				c-0.6,0.4-1.4,0.8-2.3,1.1c-0.3,0.1-0.6,0.1-0.8-0.2c-0.3-0.3-0.2-0.6,0.2-0.7c0.5-0.2,1.1-0.6,1.8-1c-0.7-0.4-1.2-0.7-1.6-0.9
				c-0.4-0.2-0.5-0.5-0.2-0.8l0.2-0.2l-0.3-0.2c-0.3-0.3-0.3-0.7,0.2-0.8c0.5-0.2,1.1-0.5,1.8-1c-0.7-0.4-1.2-0.7-1.6-0.9
				c-0.4-0.2-0.5-0.5-0.2-0.8c0.2-0.2,0.4-0.3,0.8-0.1c0.9,0.4,1.6,0.8,2.2,1.1c0.4-0.3,0.7-0.6,1.2-1.1c0.2-0.3,0.5-0.3,0.8-0.2
				l0.3,0.1C125.3,8,125.4,8.3,125.1,8.6 M120.1,11.7c1,0.5,1.9,0.9,2.4,1.3c0.4-0.3,0.9-0.8,1.5-1.5c-0.4-0.3-0.9-0.6-1.4-1
				C122,10.9,121.2,11.3,120.1,11.7"/>
		</defs>
		<clipPath id="SVGID_26_">
			<use xlink:href="#SVGID_25_"  style="overflow:visible;"/>
		</clipPath>
		<g class="st12">
			<defs>
				<rect id="SVGID_27_" x="1.8" y="-23.6" width="166.2" height="83.1"/>
			</defs>
			<clipPath id="SVGID_28_">
				<use xlink:href="#SVGID_27_"  style="overflow:visible;"/>
			</clipPath>
			<rect x="111.4" y="6.9" class="st13" width="21.9" height="21.8"/>
		</g>
	</g>
	<g>
		<defs>
			<path id="SVGID_29_" d="M146.4,10.3c-1.2,3.1-1.7,4.2-2.2,5.2c1.7,2,2,3.2,2,5c0,1.9-0.9,2.9-3.2,2.9c-0.3,0-0.5-0.2-0.6-0.5
				c-0.1-0.4,0.1-0.6,0.6-0.6h-0.2c1,0,1.4-0.4,1.4-2.1c0-1.6-0.5-2.7-1.7-4.3c-0.2-0.3-0.2-0.5-0.1-0.8c0.7-1.7,1.5-3.5,2.1-5.4
				h-2.7v17.5c0,0.4-0.2,0.6-0.6,0.6h-0.8c-0.4,0-0.6-0.2-0.6-0.6v-18c0-0.4,0.2-0.6,0.6-0.6h5.5c0.4,0,0.6,0.2,0.6,0.6v0.3
				C146.6,9.8,146.5,10,146.4,10.3 M159.2,18.4c0,0.4-0.2,0.6-0.6,0.6h-3.1v6.3c0,1-0.2,1,1.1,1c0.7,0,0.8,0,1.1-0.6
				c0.1-0.2,0.2-1.2,0.2-2.9c0-0.4,0.2-0.6,0.7-0.6l0.9,0.1c0.4,0,0.6,0.2,0.6,0.7c0,0.7,0,1.1-0.1,1.8c-0.1,0.9-0.1,1.8-0.8,2.4
				c-0.3,0.2-0.7,0.2-1,0.3c-0.2,0-1.2,0.1-1.5,0.1c-2.8,0-3.3-0.3-3.3-1.7V19h-1.3c0,4.7-1.5,6.9-6.2,8.7c-0.3,0.1-0.6,0-0.8-0.3
				l-0.1-0.1c-0.2-0.4-0.1-0.7,0.3-0.8c3.3-1.3,4.5-3.2,4.6-7.5h-2.1c-0.4,0-0.6-0.2-0.6-0.6c0-0.4,0.2-0.6,0.6-0.6h11
				C159,17.8,159.2,18,159.2,18.4 M159.5,10.8v3c0,0.4-0.2,0.6-0.6,0.6h-1c-0.4,0-0.6-0.2-0.6-0.6v-2.5h-8.3v2.5
				c0,0.4-0.2,0.6-0.6,0.6h-1c-0.4,0-0.6-0.2-0.6-0.6v-3c0-0.4,0.2-0.6,0.6-0.6h4.4V8.3c0-0.4,0.2-0.6,0.6-0.6h1.1
				c0.4,0,0.6,0.2,0.6,0.6v1.9h4.9C159.3,10.2,159.5,10.4,159.5,10.8 M156.9,14.2c0,0.4-0.2,0.6-0.6,0.6H150c-0.4,0-0.6-0.2-0.6-0.6
				c0-0.4,0.2-0.5,0.6-0.5h6.3C156.7,13.7,156.9,13.9,156.9,14.2"/>
		</defs>
		<clipPath id="SVGID_30_">
			<use xlink:href="#SVGID_29_"  style="overflow:visible;"/>
		</clipPath>
		<g class="st14">
			<defs>
				<rect id="SVGID_31_" x="1.8" y="-23.6" width="166.2" height="83.1"/>
			</defs>
			<clipPath id="SVGID_32_">
				<use xlink:href="#SVGID_31_"  style="overflow:visible;"/>
			</clipPath>
			<rect x="139.1" y="7" class="st15" width="21.6" height="21.6"/>
		</g>
	</g>
</g>
</svg>
