<svg xmlns="http://www.w3.org/2000/svg" viewBox="0 0 196.44 58.94"><defs><style>.cls-1{fill:#009fa8;}.cls-2{fill:#c9caca;}.cls-3{fill:#727171;}</style></defs><title>資產 1</title><g id="圖層_2" data-name="圖層 2"><g id="header"><rect class="cls-1" y="22.94" width="1.06" height="4.63"/><rect class="cls-1" y="32.19" width="1.06" height="4.63"/><rect class="cls-1" y="41.45" width="1.06" height="4.63"/><rect class="cls-1" y="46.08" width="1.06" height="4.63"/><rect class="cls-1" x="4.24" y="26.54" width="1.06" height="4.63"/><rect class="cls-1" x="4.24" y="40.43" width="1.06" height="4.63"/><rect class="cls-1" x="4.24" y="54.31" width="1.06" height="4.63"/><rect class="cls-1" x="21.19" y="26.54" width="1.06" height="4.63"/><rect class="cls-1" x="21.19" y="40.43" width="1.06" height="4.63"/><rect class="cls-1" x="21.19" y="54.31" width="1.06" height="4.63"/><rect class="cls-1" x="29.66" y="14.78" width="1.06" height="4.63"/><rect class="cls-1" x="29.66" y="28.67" width="1.06" height="4.63"/><rect class="cls-1" x="29.66" y="42.56" width="1.06" height="4.63"/><rect class="cls-1" x="8.47" y="19.88" width="1.06" height="4.63"/><rect class="cls-1" x="8.47" y="43.03" width="1.06" height="4.63"/><rect class="cls-1" x="8.47" y="47.66" width="1.06" height="4.63"/><rect class="cls-1" x="12.71" y="29.14" width="1.06" height="4.63"/><rect class="cls-1" x="16.95" y="23.8" width="1.06" height="4.63"/><rect class="cls-1" x="16.95" y="42.32" width="1.06" height="4.63"/><rect class="cls-1" x="25.42" y="20.57" width="1.06" height="4.63"/><rect class="cls-1" x="25.42" y="39.09" width="1.06" height="4.63"/><rect class="cls-1" x="25.42" y="43.71" width="1.06" height="4.63"/><rect class="cls-1" x="25.42" y="48.34" width="1.06" height="4.63"/><rect class="cls-1" x="33.9" y="10.69" width="1.06" height="4.63"/><rect class="cls-1" x="33.9" y="19.95" width="1.06" height="4.63"/><rect class="cls-1" x="33.9" y="29.21" width="1.06" height="4.63"/><rect class="cls-1" x="38.14" y="4.63" width="1.06" height="4.63"/><rect class="cls-1" x="38.14" y="32.41" width="1.06" height="4.63"/><rect class="cls-1" x="42.37" y="13.48" width="1.06" height="4.63"/><rect class="cls-1" x="42.37" y="27.37" width="1.06" height="4.63"/><rect class="cls-1" x="42.37" y="32" width="1.06" height="4.63"/><rect class="cls-2" y="18.31" width="1.06" height="4.63"/><rect class="cls-2" y="27.57" width="1.06" height="4.63"/><rect class="cls-2" y="36.82" width="1.06" height="4.63"/><rect class="cls-2" x="4.24" y="21.91" width="1.06" height="4.63"/><rect class="cls-2" x="4.24" y="31.17" width="1.06" height="4.63"/><rect class="cls-2" x="4.24" y="35.8" width="1.06" height="4.63"/><rect class="cls-2" x="4.24" y="45.06" width="1.06" height="4.63"/><rect class="cls-2" x="4.24" y="49.69" width="1.06" height="4.63"/><rect class="cls-2" x="21.19" y="21.91" width="1.06" height="4.63"/><rect class="cls-2" x="21.19" y="31.17" width="1.06" height="4.63"/><rect class="cls-2" x="21.19" y="35.8" width="1.06" height="4.63"/><rect class="cls-2" x="21.19" y="45.06" width="1.06" height="4.63"/><rect class="cls-2" x="21.19" y="49.68" width="1.06" height="4.63"/><rect class="cls-2" x="29.66" y="10.15" width="1.06" height="4.63"/><rect class="cls-2" x="29.66" y="19.41" width="1.06" height="4.63"/><rect class="cls-2" x="29.66" y="24.04" width="1.06" height="4.63"/><rect class="cls-2" x="29.66" y="33.3" width="1.06" height="4.63"/><rect class="cls-2" x="29.66" y="37.93" width="1.06" height="4.63"/><rect class="cls-2" x="8.47" y="15.25" width="1.06" height="4.63"/><rect class="cls-2" x="8.47" y="24.51" width="1.06" height="4.63"/><rect class="cls-2" x="8.47" y="29.14" width="1.06" height="4.63"/><rect class="cls-2" x="8.47" y="33.77" width="1.06" height="4.63"/><rect class="cls-2" x="8.47" y="38.4" width="1.06" height="4.63"/><rect class="cls-2" x="12.71" y="19.88" width="1.06" height="4.63"/><rect class="cls-2" x="12.71" y="24.51" width="1.06" height="4.63"/><rect class="cls-2" x="12.71" y="33.77" width="1.06" height="4.63"/><rect class="cls-2" x="12.71" y="38.39" width="1.06" height="4.63"/><rect class="cls-2" x="12.71" y="43.02" width="1.06" height="4.63"/><rect class="cls-2" x="12.71" y="47.65" width="1.06" height="4.63"/><rect class="cls-2" x="12.71" y="52.28" width="1.06" height="4.63"/><rect class="cls-2" x="16.95" y="19.17" width="1.06" height="4.63"/><rect class="cls-2" x="16.95" y="28.43" width="1.06" height="4.63"/><rect class="cls-2" x="16.95" y="33.06" width="1.06" height="4.63"/><rect class="cls-2" x="16.95" y="37.69" width="1.06" height="4.63"/><rect class="cls-2" x="16.95" y="46.95" width="1.06" height="4.63"/><rect class="cls-2" x="16.95" y="51.57" width="1.06" height="4.63"/><rect class="cls-2" x="25.42" y="15.94" width="1.06" height="4.63"/><rect class="cls-2" x="25.42" y="25.2" width="1.06" height="4.63"/><rect class="cls-2" x="25.42" y="29.83" width="1.06" height="4.63"/><rect class="cls-2" x="25.42" y="34.46" width="1.06" height="4.63"/><rect class="cls-2" x="33.9" y="6.06" width="1.06" height="4.63"/><rect class="cls-2" x="33.9" y="15.32" width="1.06" height="4.63"/><rect class="cls-2" x="33.9" y="24.58" width="1.06" height="4.63"/><rect class="cls-2" x="33.9" y="33.83" width="1.06" height="4.63"/><rect class="cls-2" x="33.9" y="38.46" width="1.06" height="4.63"/><rect class="cls-2" x="38.14" width="1.06" height="4.63"/><rect class="cls-2" x="38.14" y="9.26" width="1.06" height="4.63"/><rect class="cls-2" x="38.14" y="13.89" width="1.06" height="4.63"/><rect class="cls-2" x="38.14" y="18.52" width="1.06" height="4.63"/><rect class="cls-2" x="38.14" y="23.15" width="1.06" height="4.63"/><rect class="cls-2" x="38.14" y="27.78" width="1.06" height="4.63"/><rect class="cls-2" x="42.37" y="8.85" width="1.06" height="4.63"/><rect class="cls-2" x="42.37" y="18.11" width="1.06" height="4.63"/><rect class="cls-2" x="42.37" y="22.74" width="1.06" height="4.63"/><rect class="cls-2" x="42.37" y="36.63" width="1.06" height="4.63"/><rect class="cls-2" x="42.37" y="41.26" width="1.06" height="4.63"/><path class="cls-3" d="M62.55,38.84l-1.63,7H58.29l-1.64-7h1.5l1.22,5.79h.47l1.22-5.79Z"/><path class="cls-3" d="M63.42,38.84h1.43v7H63.42Z"/><path class="cls-3" d="M70.74,45.75a11.1,11.1,0,0,1-2,.24C66.52,46,66,44.81,66,42.36c0-2.67.6-3.64,2.69-3.64a9.66,9.66,0,0,1,2.06.28l0,1.13A15.79,15.79,0,0,0,68.9,40c-1.09,0-1.43.38-1.43,2.38s.25,2.37,1.47,2.37a16.1,16.1,0,0,0,1.76-.14Z"/><path class="cls-3" d="M74.3,45.87V38.69h2.62c2,0,2.55,1.55,2.55,3.49s-.56,3.69-2.55,3.69Zm2.62-6.6h-2v6h2c1.5,0,1.89-1.56,1.89-3.12S78.42,39.27,76.92,39.27Z"/><path class="cls-3" d="M80.85,38.69h.65v7.18h-.65Z"/><path class="cls-3" d="M86,42.24h2v3.47a14.44,14.44,0,0,1-2.3.26c-2.17,0-2.75-1.36-2.75-3.67s.57-3.72,2.74-3.72a12.69,12.69,0,0,1,2.31.27l0,.55a15.07,15.07,0,0,0-2.23-.24c-1.76,0-2.13,1.11-2.13,3.14s.37,3.09,2.12,3.09a11.36,11.36,0,0,0,1.64-.16V42.81H86Z"/><path class="cls-3" d="M89.45,38.69h.64v7.18h-.64Z"/><path class="cls-3" d="M91.14,38.69h5.17v.58H94.05v6.6h-.64v-6.6H91.14Z"/><path class="cls-3" d="M98.16,38.69h1.5l2.06,7.18h-.63l-.58-2H97.3l-.56,2h-.65Zm-.7,4.63h2.89l-1.17-4.08h-.55Z"/><path class="cls-3" d="M102.84,45.87V38.69h.65v6.6h3.28v.58Z"/><path class="cls-3" d="M110.08,38.69h1.26l3,6.61h.23V38.69h.64v7.18H114l-3-6.6h-.23v6.6h-.64Z"/><path class="cls-3" d="M116.87,38.69h4.31v.58h-3.67v2.66h3v.57h-3v2.8h3.67v.57h-4.31Z"/><path class="cls-3" d="M122.05,38.69h5.17v.58H125v6.6h-.64v-6.6h-2.27Z"/><path class="cls-3" d="M128.66,38.69,130,45.3h.34l1.51-6.53h.75l1.5,6.53h.34l1.31-6.61h.65l-1.48,7.18H133.6l-1.42-6.31-1.41,6.31h-1.29L128,38.69Z"/><path class="cls-3" d="M137.14,42.31c0-2.36.59-3.73,2.8-3.73s2.81,1.36,2.81,3.73S142.16,46,139.94,46,137.14,44.7,137.14,42.31Zm5,0c0-2-.4-3.15-2.15-3.15s-2.14,1.13-2.14,3.15.35,3.08,2.14,3.08S142.09,44.42,142.09,42.31Z"/><path class="cls-3" d="M144.8,43v2.83h-.64V38.69h2.63c1.48,0,2.24.64,2.24,2.13a1.91,1.91,0,0,1-1.39,2.09l1.48,3h-.71L147,43Zm2-3.79h-2v3.22h2c1.17,0,1.57-.68,1.57-1.64S147.87,39.25,146.79,39.25Z"/><path class="cls-3" d="M152.25,42.62l-1.25,0v3.23h-.64V38.69H151v3.39l1.24,0,2-3.36H155l-2.17,3.6,2.31,3.58h-.77Z"/><path class="cls-3" d="M159.88,38.69h1.5l2.06,7.18h-.64l-.57-2H159l-.57,2h-.64Zm-.7,4.63h2.89l-1.17-4.08h-.55Z"/><path class="cls-3" d="M164.56,45.87V38.69h2.62c2,0,2.55,1.55,2.55,3.49s-.56,3.69-2.55,3.69Zm2.62-6.6h-2v6h2c1.51,0,1.89-1.56,1.89-3.12S168.69,39.27,167.18,39.27Z"/><path class="cls-3" d="M175.81,38.69l-1.92,7.18h-1.56l-1.93-7.18h.66l1.75,6.61h.61l1.74-6.61Z"/><path class="cls-3" d="M177,38.69h.64v7.18H177Z"/><path class="cls-3" d="M183.17,39.32s-1.43-.18-2-.18c-1.07,0-1.66.38-1.66,1.27,0,1.07.55,1.22,1.82,1.47s2.08.62,2.08,1.89c0,1.59-.84,2.18-2.26,2.18a21.72,21.72,0,0,1-2.24-.2l.07-.54s1.42.17,2.15.17c1.08,0,1.63-.46,1.63-1.57,0-.9-.47-1.12-1.67-1.34-1.46-.28-2.23-.59-2.23-2s.89-1.88,2.27-1.88a17.51,17.51,0,0,1,2.12.2Z"/><path class="cls-3" d="M184.46,42.31c0-2.36.59-3.73,2.8-3.73s2.81,1.36,2.81,3.73S189.48,46,187.26,46,184.46,44.7,184.46,42.31Zm4.95,0c0-2-.4-3.15-2.15-3.15s-2.14,1.13-2.14,3.15.35,3.08,2.14,3.08S189.41,44.42,189.41,42.31Z"/><path class="cls-3" d="M192.12,43v2.83h-.64V38.69h2.64c1.47,0,2.23.64,2.23,2.13A1.91,1.91,0,0,1,195,42.91l1.48,3h-.71L194.31,43Zm2-3.79h-2v3.22h2c1.16,0,1.57-.68,1.57-1.64A1.37,1.37,0,0,0,194.12,39.25Z"/><path class="cls-1" d="M168,13.33h0V14.8h0V25.45h0a1.47,1.47,0,0,0,1.48,1.47h0V25.45h0V14.8h0A1.47,1.47,0,0,0,168,13.33Z"/><path class="cls-1" d="M177.74,26.59V25.12h0a1.47,1.47,0,0,0-1.48,1.47h0v2.94h0V31h0a1.47,1.47,0,0,0,1.48-1.47h0V26.59Z"/><path class="cls-1" d="M192.79,16.52h-13.9A1.94,1.94,0,0,0,177,18.46v3.75a1.94,1.94,0,0,0,1.94,1.95h13.9a1.94,1.94,0,0,0,1.94-1.95V18.46A1.94,1.94,0,0,0,192.79,16.52Zm0,6.16h-13.9a.47.47,0,0,1-.47-.47V18.46a.47.47,0,0,1,.47-.46h13.9a.47.47,0,0,1,.47.46V19.6h-12a1.47,1.47,0,0,0-1.47,1.48h13.44v1.13A.48.48,0,0,1,192.79,22.68Z"/><path class="cls-1" d="M194.66,14.07h-3.58l.67-1.7a1.9,1.9,0,0,0-1.86,1c-.11.27-.21.52-.29.74h-7.51c-.09-.22-.19-.47-.29-.74a1.92,1.92,0,0,0-1.87-1l.67,1.7H177a1.48,1.48,0,0,0-1.48,1.48h19.11a1.47,1.47,0,0,0,1.47-1.47h-1.47Z"/><path class="cls-1" d="M196.15,27.06a1.94,1.94,0,0,0-1.94-1.94h-7.16a1.94,1.94,0,0,0-1.94,1.94v1.87h1.47V27.06a.48.48,0,0,1,.47-.47h7.16a.47.47,0,0,1,.46.47v1.77h0a1.47,1.47,0,0,0,1.48,1.47h0V28.83h0Z"/><path class="cls-1" d="M193.26,28.68a1.47,1.47,0,0,0-1.47-1.44h0v1.87a.45.45,0,0,1-.47.45H181.15a.48.48,0,0,1-.47-.47v-2.5h0a1.47,1.47,0,0,0-1.47-1.47h0v4A2,2,0,0,0,181.15,31h10.17a1.76,1.76,0,0,0,1.94-1.55v-.81Z"/><path class="cls-1" d="M115.34,17.05a1.81,1.81,0,0,0,1.81-1.81v-.78A1.48,1.48,0,0,0,118.61,13h-1.46V12.2a1.82,1.82,0,0,0-1.81-1.81H112v0h0a1.47,1.47,0,0,0-1.47-1.45h0v1.45h0v0h-3.35a1.82,1.82,0,0,0-1.81,1.81V13a1.47,1.47,0,0,0-1.47,1.47h1.47v.78a1.82,1.82,0,0,0,1.81,1.81h3.35v.7h-4a1.81,1.81,0,0,0-1.81,1.8v1.53a1.81,1.81,0,0,0,1.81,1.81h.28v1.5h-1.42a1.47,1.47,0,0,0-1.47,1.47h3.05a5.76,5.76,0,0,0,2.49,3.36,11.15,11.15,0,0,1-2.58.32h-1.48A1.47,1.47,0,0,0,106.83,31h0a12.61,12.61,0,0,0,4.42-.84,12.61,12.61,0,0,0,4.42.84h0a1.46,1.46,0,0,0,1.47-1.47h-1.47a11.17,11.17,0,0,1-2.59-.32,5.74,5.74,0,0,0,2.48-3.36h1.58a1.47,1.47,0,0,0,1.47-1.47h-2.89v-1.5H116a1.81,1.81,0,0,0,1.81-1.81V19.55a1.81,1.81,0,0,0-1.81-1.8h-4v-.7Zm-9.19,4V19.55a.34.34,0,0,1,.34-.33h4v2.2h-4A.34.34,0,0,1,106.15,21.08Zm5.1,7.5a5,5,0,0,1-2.77-2.72H114A5,5,0,0,1,111.25,28.58Zm3-4.19h-6v-1.5h6ZM116,19.22a.34.34,0,0,1,.34.33v1.53a.34.34,0,0,1-.34.34h-4v-2.2Zm-.67-3.65H112V14.46h3.7v.78A.34.34,0,0,1,115.34,15.57Zm0-3.7a.34.34,0,0,1,.34.33V13H112V11.87Zm-8.18,0h3.35V13h-3.68V12.2A.33.33,0,0,1,107.16,11.87Zm0,3.7a.33.33,0,0,1-.33-.33v-.78h3.68v1.11Z"/><path class="cls-1" d="M163.87,14.79h-3.82V13.71h0v0h0a1.47,1.47,0,0,0-1.47-1.44h0v1.44h0v1.11h-4.14a1.94,1.94,0,0,0-1.94,1.94v9.8a3.53,3.53,0,0,1-.73,2.29h0L150.83,30h0a1.47,1.47,0,0,0,2.06-.17h0A5,5,0,0,0,154,26.53v-9.8a.47.47,0,0,1,.47-.46h9.43a.47.47,0,0,1,.47.46v1.75h-7.45A1.47,1.47,0,0,0,155.42,20h8.92V21.7a.48.48,0,0,1-.47.47h-7a1.47,1.47,0,0,0-1.48,1.47h8.45a2,2,0,0,0,1.95-1.94v-5A2,2,0,0,0,163.87,14.79Z"/><path class="cls-1" d="M146.79,11.86h-4.45l.74-.88h0a1.47,1.47,0,0,0-.18-2.07L142,10h0l-1.53,1.82h-3.94A1.46,1.46,0,0,0,135,13.33h11.78a1.47,1.47,0,0,0,1.47-1.47h-1.47Z"/><path class="cls-1" d="M165.5,12.2h0l-5-3a3,3,0,0,0-2.82,0l-5,3h0l-1.26.75h0a1.47,1.47,0,0,0,2,.51h0l5-3a1.53,1.53,0,0,1,1.32,0l5,3h0a1.47,1.47,0,0,0,2-.51h0Z"/><path class="cls-1" d="M62.51,23.94H58.43l4.74-5.6h0A1.48,1.48,0,0,0,63,16.26l-1,1.13h0l-1.15,1.36-2.65-3.16h0L62.13,11h0A1.48,1.48,0,0,0,62,8.9L61,10h0l-3.89,4.61h0a1.47,1.47,0,0,0,0,1.84l0,0,2.84,3.38L57,23.31h0a1.48,1.48,0,0,0,.09,2l0,0,.06,0a.72.72,0,0,0,.32.08h5a.47.47,0,0,1,.46.47v3.65a2.3,2.3,0,0,1-1.47-.23,4.24,4.24,0,0,0-3.67,0h0l-.16.07-.16.07-1,.48h0a1.48,1.48,0,0,0,1.95.72h0a2.83,2.83,0,0,1,2.52,0,4.44,4.44,0,0,0,1.61.37,3.66,3.66,0,0,0,1.42-.3.74.74,0,0,0,.46-.68V25.88A1.94,1.94,0,0,0,62.51,23.94Z"/><path class="cls-1" d="M163.87,25.12h-7a1.47,1.47,0,0,0-1.47,1.47h8.45a.47.47,0,0,1,.47.46v2a.48.48,0,0,1-.47.47h-7.68A1.47,1.47,0,0,0,154.72,31h9.15a2,2,0,0,0,1.95-1.94v-2A1.94,1.94,0,0,0,163.87,25.12Z"/><path class="cls-1" d="M148.26,29.53h-3.57c1.27-2,2.12-5.74,2.12-9V16.28h0V14.8h0a1.47,1.47,0,0,0-1.47,1.46h0v4.26c0,5-1.83,8.79-2.57,9a.61.61,0,0,1-.15,0h-2l-.14,0c-.74-.2-2.57-4-2.57-9V16.26h0a1.48,1.48,0,0,0-1.47-1.46h0v1.48h0v4.24c0,3.27.85,7,2.12,9h-5.66a.88.88,0,0,1-.88-.88V14.36L134.93,11h0a1.48,1.48,0,0,0-.18-2.08L133.8,10,127.92,17h0a1.46,1.46,0,0,0,.19,2.07h0l.94-1.12h0l1.54-1.82V29.53h0A1.47,1.47,0,0,0,132.06,31h16.2a1.47,1.47,0,0,0,1.48-1.47h-1.48Z"/><path class="cls-1" d="M79.21,13.33H73.88l2-2.35h0a1.46,1.46,0,0,0-.18-2.07L74.73,10,72,13.33H67.41l2-2.35h0a1.48,1.48,0,0,0-.18-2.08l-1,1.13-3.89,4.61h0a1.47,1.47,0,0,0,.18,2.07h0l1-1.13h0l.45-.53V29.53h0A1.47,1.47,0,0,0,67.43,31H77.74a1.47,1.47,0,0,0,1.47-1.47H74.06V25.12H77a1.49,1.49,0,0,0,1.47-1.48h-4.4V20H77a1.47,1.47,0,0,0,1.47-1.47h-4.4V14.8h3.68A1.47,1.47,0,0,0,79.21,13.33Zm-6.63,5.16H68.94V20h3.64v3.68H68.94v1.48h3.64v4.41H68.29a.88.88,0,0,1-.86-.87V14.8h5.15Z"/><path class="cls-1" d="M101.32,29.54H96.16a1.3,1.3,0,0,1-1.48-1.48V23.64H97.9a1.94,1.94,0,0,0,1.94-1.95v-5A1.94,1.94,0,0,0,97.9,14.8H92.47V13h7.37a1.47,1.47,0,0,0,1.47-1.48H92.47V10.39h0v0h0A1.47,1.47,0,0,0,91,8.91h0v1.45h0v1.11H83.63A1.48,1.48,0,0,0,82.16,13H91V14.8H85.57a1.94,1.94,0,0,0-1.94,1.94v5a1.94,1.94,0,0,0,1.94,1.95h3.22c0,1.71-1.27,5.89-6.63,5.89H80.69A1.46,1.46,0,0,0,82.15,31h0c5.85,0,8.06-4.48,8.1-7.36h2.95v4.42a2.74,2.74,0,0,0,3,3h5.16a1.47,1.47,0,0,0,1.47-1.47v-.12A8.71,8.71,0,0,1,101.32,29.54ZM85.1,21.69v-5a.47.47,0,0,1,.47-.46H97.9a.47.47,0,0,1,.46.46v5a.47.47,0,0,1-.46.47H85.57A.47.47,0,0,1,85.1,21.69Z"/><path class="cls-1" d="M124.53,29.54h0a2.05,2.05,0,0,1-1.17-.44A13.81,13.81,0,0,0,126,20.76V15.2a1.81,1.81,0,0,0-1.8-1.81h-2.26a.34.34,0,0,1-.34-.33V10.39h0a1.47,1.47,0,0,0-1.47-1.46h0v4.15a1.81,1.81,0,0,0,1.81,1.81h2.26a.34.34,0,0,1,.33.33v5.56A12.59,12.59,0,0,1,122.32,28a12.54,12.54,0,0,1-2.21-7.28v-3h0a1.47,1.47,0,0,0-1.47-1.44h0v1.47h0v3a13.78,13.78,0,0,0,2.65,8.32,2.16,2.16,0,0,1-1.22.46h0a4.41,4.41,0,0,1-1.47-.09v.09A1.46,1.46,0,0,0,120.05,31h0a3.67,3.67,0,0,0,2.27-.87,3.56,3.56,0,0,0,2.22.87h0A1.46,1.46,0,0,0,126,29.54v-.09A4.41,4.41,0,0,1,124.53,29.54Z"/><path class="cls-1" d="M171.66,8.91h0v1.48h0V29.06a.48.48,0,0,1-.47.47H168A1.47,1.47,0,0,0,169.45,31h1.74a1.94,1.94,0,0,0,1.95-1.94V10.39A1.48,1.48,0,0,0,171.66,8.91Z"/><path class="cls-1" d="M193.2,10.37h-6.46a1.47,1.47,0,0,0-.49-1.46L185.3,10l-.28.33h-6.53A1.48,1.48,0,0,0,177,11.85H193.2a1.47,1.47,0,0,0,1.47-1.48H193.2Z"/></g></g></svg>