<svg xmlns="http://www.w3.org/2000/svg" viewBox="0 0 35.71 40"><defs><style>.cls-1{fill:#fff;}</style></defs><path class="cls-1" d="M18,15.06a.39.39,0,0,1-.31-.15l-2.84-3.57a.39.39,0,1,1,.61-.49l2.84,3.57a.39.39,0,0,1-.06.55A.38.38,0,0,1,18,15.06Z"/><path class="cls-1" d="M18,15.06a.35.35,0,0,1-.25-.1.39.39,0,0,1,0-.55L20.64,11a.38.38,0,0,1,.55,0,.39.39,0,0,1,0,.55l-2.92,3.37A.41.41,0,0,1,18,15.06Z"/><path class="cls-1" d="M18,18.5a.4.4,0,0,1-.4-.4V14.67a.4.4,0,1,1,.79,0V18.1A.4.4,0,0,1,18,18.5Z"/><path class="cls-1" d="M21.37,17l-.15,0a.39.39,0,0,1-.22-.51l1.67-4.25a.39.39,0,1,1,.73.29l-1.67,4.25A.39.39,0,0,1,21.37,17Z"/><path class="cls-1" d="M25.75,17.85h-.08L21.29,17a.39.39,0,1,1,.15-.77l4.38.84a.39.39,0,0,1,.31.46A.39.39,0,0,1,25.75,17.85Z"/><path class="cls-1" d="M18.39,18.73a.39.39,0,0,1-.34-.19.4.4,0,0,1,.14-.54l3-1.72a.4.4,0,0,1,.54.15.4.4,0,0,1-.15.53l-3,1.72A.32.32,0,0,1,18.39,18.73Z"/><path class="cls-1" d="M13,25.08a.32.32,0,0,1-.14,0,.4.4,0,0,1-.23-.51l1.68-4.25a.38.38,0,0,1,.5-.22.39.39,0,0,1,.22.51l-1.67,4.25A.4.4,0,0,1,13,25.08Z"/><path class="cls-1" d="M14.68,20.83h-.07L10.23,20a.39.39,0,0,1,.14-.77l4.38.84a.39.39,0,0,1-.07.78Z"/><path class="cls-1" d="M14.68,20.83a.39.39,0,0,1-.2-.73l3-1.72a.4.4,0,0,1,.54.14.4.4,0,0,1-.15.54l-3,1.72A.49.49,0,0,1,14.68,20.83Z"/><path class="cls-1" d="M20.85,26.31a.43.43,0,0,1-.31-.14L17.7,22.59a.39.39,0,1,1,.61-.48l2.85,3.57a.4.4,0,0,1-.07.55A.41.41,0,0,1,20.85,26.31Z"/><path class="cls-1" d="M15.09,26.11a.43.43,0,0,1-.26-.09.39.39,0,0,1,0-.55l2.92-3.38a.39.39,0,1,1,.59.52L15.38,26A.36.36,0,0,1,15.09,26.11Z"/><path class="cls-1" d="M18,22.74a.39.39,0,0,1-.4-.39V18.91a.4.4,0,0,1,.79,0v3.44A.39.39,0,0,1,18,22.74Z"/><path class="cls-1" d="M21.34,20.86a.4.4,0,0,1-.39-.34.39.39,0,0,1,.33-.44l4.51-.68a.4.4,0,0,1,.45.33.41.41,0,0,1-.33.45l-4.51.67Z"/><path class="cls-1" d="M22.8,25.07a.4.4,0,0,1-.37-.26L21,20.59a.4.4,0,0,1,.24-.5.4.4,0,0,1,.5.25l1.46,4.21a.4.4,0,0,1-.24.5Z"/><path class="cls-1" d="M21.34,20.86a.36.36,0,0,1-.2-.06l-3-1.71a.4.4,0,0,1-.14-.54.39.39,0,0,1,.54-.14l3,1.72a.38.38,0,0,1,.15.53A.4.4,0,0,1,21.34,20.86Z"/><path class="cls-1" d="M10.15,17.65a.39.39,0,0,1-.39-.33.39.39,0,0,1,.33-.44l4.51-.68a.39.39,0,1,1,.12.77l-4.52.68Z"/><path class="cls-1" d="M14.66,17a.39.39,0,0,1-.37-.27L12.83,12.5a.39.39,0,0,1,.74-.26L15,16.46a.4.4,0,0,1-.24.5Z"/><path class="cls-1" d="M17.64,18.7a.39.39,0,0,1-.2-.06l-3-1.72a.39.39,0,0,1-.14-.53.39.39,0,0,1,.54-.14l3,1.72a.38.38,0,0,1,.15.53A.39.39,0,0,1,17.64,18.7Z"/><path class="cls-1" d="M35.71,17.85A17.86,17.86,0,1,0,5.29,30.53a1.65,1.65,0,0,1,1.13-.64,1.69,1.69,0,0,0-1.16,1.6A1.71,1.71,0,0,0,7,33.2H29a1.71,1.71,0,0,0,1.7-1.71,1.68,1.68,0,0,0-.3-1A17.8,17.8,0,0,0,35.71,17.85Zm-31.63,0A13.78,13.78,0,1,1,24.7,29.79H11A13.78,13.78,0,0,1,4.08,17.85Z"/><path class="cls-1" d="M29.59,40H6.44a1.36,1.36,0,0,1-1.32-1.68L5.68,36A1.36,1.36,0,0,1,7,35H29a1.36,1.36,0,0,1,1.32,1l.56,2.3A1.36,1.36,0,0,1,29.59,40Z"/></svg>