<svg height="512" viewBox="0 0 74 74" width="512" xmlns="http://www.w3.org/2000/svg"><g id="Numbers"><text fill="rgb(0,0,0)" font-family="ArialMT, Arial" font-size="18" transform="translate(31.995 -17.877)">6<tspan x="-5.005" y="124">16</tspan><tspan x="-5.005" y="248">26</tspan><tspan x="-5.005" y="372">36</tspan><tspan x="-5.005" y="496">46</tspan><tspan x="-5.005" y="620">56</tspan><tspan x="-5.005" y="744">66</tspan><tspan x="-5.005" y="868">76</tspan><tspan x="-5.005" y="992">86</tspan><tspan x="-5.005" y="1116">96</tspan><tspan x="-10.011" y="1240">106</tspan><tspan letter-spacing="-.074em" x="-9.343" y="1364">1</tspan><tspan x="-.668" y="1364">16</tspan><tspan x="-10.011" y="1488">126</tspan><tspan x="-10.011" y="1612">136</tspan><tspan x="-10.011" y="1736">146</tspan><tspan x="-10.011" y="1860">156</tspan><tspan x="-10.011" y="1984">166</tspan><tspan x="-10.011" y="2108">176</tspan><tspan x="-10.011" y="2232">186</tspan><tspan x="-10.011" y="2356">196</tspan><tspan x="-10.011" y="2480">206</tspan><tspan x="-10.011" y="2604">216</tspan><tspan x="-10.011" y="2728">226</tspan><tspan x="-10.011" y="2852">236</tspan><tspan x="-10.011" y="2976">246</tspan><tspan x="-10.011" y="3100">256</tspan><tspan x="-10.011" y="3224">266</tspan><tspan x="-10.011" y="3348">276</tspan><tspan x="-10.011" y="3472">286</tspan><tspan x="-10.011" y="3596">296</tspan></text></g><g id="Icons"><path d="m56.93 58.85a1 1 0 0 1 -.686-1.727c.639-.6 1.292-1.289 1.941-2.038a1 1 0 1 1 1.515 1.315 29.919 29.919 0 0 1 -2.081 2.183.993.993 0 0 1 -.689.267z"/><path d="m42.12 66.39a1 1 0 0 1 -1-.912 4.141 4.141 0 0 0 -8.248 0 1 1 0 0 1 -1.172.9 29.869 29.869 0 0 1 -24.064-24.072 1 1 0 0 1 .9-1.172 4.111 4.111 0 0 0 3.764-4.124 4.161 4.161 0 0 0 -3.767-4.124 1 1 0 0 1 -.9-1.172 29.867 29.867 0 0 1 24.067-24.068 1 1 0 0 1 1.172.9 4.141 4.141 0 0 0 8.248 0 1 1 0 0 1 1.172-.9 29.867 29.867 0 0 1 24.072 24.068 1 1 0 0 1 -.9 1.172 4.161 4.161 0 0 0 -3.764 4.124 4.111 4.111 0 0 0 3.767 4.124 1 1 0 0 1 .9 1.171 29.739 29.739 0 0 1 -2.6 7.906 1 1 0 0 1 -1.8-.882 27.736 27.736 0 0 0 2.229-6.4 6.147 6.147 0 0 1 0-11.846 27.877 27.877 0 0 0 -21.273-21.276 6.147 6.147 0 0 1 -11.846 0 27.877 27.877 0 0 0 -21.277 21.28 6.147 6.147 0 0 1 0 11.846 27.877 27.877 0 0 0 21.279 21.28 6.147 6.147 0 0 1 11.847 0 27.278 27.278 0 0 0 7.84-3 1 1 0 1 1 .992 1.736 29.275 29.275 0 0 1 -9.462 3.427 1.022 1.022 0 0 1 -.176.014z"/><path d="m37 14.311a6.1 6.1 0 0 1 -6.116-5.593 4.343 4.343 0 0 1 -.034-.558 6.15 6.15 0 0 1 12.3 0 4.511 4.511 0 0 1 -.038.591 6.091 6.091 0 0 1 -6.112 5.56zm0-10.3a4.155 4.155 0 0 0 -4.15 4.15 2.907 2.907 0 0 0 .022.349 4.141 4.141 0 0 0 8.252.034 3.113 3.113 0 0 0 .026-.383 4.155 4.155 0 0 0 -4.15-4.151z"/><path d="m37 72.01a6.156 6.156 0 0 1 -6.15-6.15 4.511 4.511 0 0 1 .038-.591 6.14 6.14 0 0 1 12.228.034 4.316 4.316 0 0 1 .034.557 6.156 6.156 0 0 1 -6.15 6.15zm0-10.3a4.112 4.112 0 0 0 -4.124 3.768 3.111 3.111 0 0 0 -.026.382 4.15 4.15 0 0 0 8.3 0 2.9 2.9 0 0 0 -.022-.348 4.122 4.122 0 0 0 -4.128-3.802z"/><path d="m65.85 43.16a4.722 4.722 0 0 1 -.6-.038 6.14 6.14 0 0 1 .043-12.222 4.213 4.213 0 0 1 .557-.035 6.15 6.15 0 1 1 0 12.3zm0-10.3a2.653 2.653 0 0 0 -.338.022 4.173 4.173 0 0 0 -3.812 4.128 4.111 4.111 0 0 0 3.767 4.124 2.984 2.984 0 0 0 .383.026 4.15 4.15 0 1 0 0-8.3z"/><path d="m8.15 43.16a6.15 6.15 0 0 1 0-12.3 4.72 4.72 0 0 1 .6.039 6.14 6.14 0 0 1 -.045 12.227 4.229 4.229 0 0 1 -.555.034zm0-10.3a4.15 4.15 0 1 0 0 8.3 2.656 2.656 0 0 0 .338-.021 4.141 4.141 0 0 0 .045-8.252 3 3 0 0 0 -.383-.027z"/><path d="m37 57.01a20 20 0 1 1 20-20 20.023 20.023 0 0 1 -20 20zm0-38a18 18 0 1 0 18 18 18.021 18.021 0 0 0 -18-18z"/><path d="m37 57.01c-5.518 0-9.84-8.785-9.84-20s4.322-20 9.84-20 9.84 8.785 9.84 20-4.322 20-9.84 20zm0-38c-4.25 0-7.84 8.243-7.84 18s3.59 18 7.84 18 7.84-8.243 7.84-18-3.59-18-7.84-18z"/><path d="m37 57.01a1 1 0 0 1 -1-1v-38a1 1 0 0 1 2 0v38a1 1 0 0 1 -1 1z"/><path d="m56 38.01h-38a1 1 0 0 1 0-2h38a1 1 0 0 1 0 2z"/><path d="m53.752 29.027h-33.493a1 1 0 0 1 0-2h33.493a1 1 0 0 1 0 2z"/><path d="m53.752 46.993h-33.493a1 1 0 0 1 0-2h33.493a1 1 0 0 1 0 2z"/></g></svg>