<svg xmlns="http://www.w3.org/2000/svg" viewBox="0 0 272 40.32" style='fill:#8d8d91;'><path class="cls-1" d="M61.6,19.94l-4.33.65L54.68,19.1l2.61-1.51,4.19.81h.08a.38.38,0,0,0,.07-.76l-3.88-.75,1.48-3.77a.38.38,0,0,0-.22-.5.39.39,0,0,0-.5.21l-1.6,4.09-2.63,1.51v-3l2.8-3.23a.39.39,0,0,0-.59-.51l-2.58,3-2.53-3.17a.38.38,0,0,0-.6.48l2.73,3.43v3l-2.62-1.52-1.4-4a.39.39,0,0,0-.73.25l1.3,3.73-4,.61a.38.38,0,0,0-.33.44.39.39,0,0,0,.38.33h.06l4.34-.65,2.61,1.51-2.58,1.49-4.2-.8a.39.39,0,0,0-.45.31.37.37,0,0,0,.3.45l3.88.75L48.58,25a.38.38,0,0,0,.22.5.32.32,0,0,0,.14,0,.38.38,0,0,0,.36-.25l1.61-4.08,2.59-1.5v3L50.71,26a.37.37,0,0,0,0,.54.35.35,0,0,0,.25.1.37.37,0,0,0,.29-.14l2.59-3,2.52,3.18a.41.41,0,0,0,.31.14A.37.37,0,0,0,57,26.7a.4.4,0,0,0,.06-.55l-2.73-3.43v-3l2.59,1.49,1.4,4a.4.4,0,0,0,.37.26.25.25,0,0,0,.12,0A.38.38,0,0,0,59,25L57.71,21.3l4-.6a.38.38,0,1,0-.12-.76Zm-7.74-.89v0h.06a0,0,0,0,0,0,0h0Z"/><path class="cls-1" d="M53.74.72A17.68,17.68,0,0,0,41.29,31a1.69,1.69,0,0,1,1.12-.64A1.68,1.68,0,0,0,43,33.6H64.78a1.68,1.68,0,0,0,1.68-1.69,1.65,1.65,0,0,0-.3-.95A17.66,17.66,0,0,0,53.74.72Zm6.78,29.51H47a13.64,13.64,0,1,1,13.56,0Z"/><path class="cls-1" d="M66.12,36.4a1.35,1.35,0,0,0-1.31-1H43a1.34,1.34,0,0,0-1.31,1l-.56,2.27a1.39,1.39,0,0,0,.25,1.15,1.35,1.35,0,0,0,1.06.52H65.36a1.35,1.35,0,0,0,1.31-1.67Z"/><path class="cls-1" d="M140.36,7.35a2.13,2.13,0,1,0,0-4.25H121.89a2.13,2.13,0,0,0-2.13,2.13V34a2.12,2.12,0,0,0,2.13,2.12h18.47a2.13,2.13,0,1,0,0-4.25H124V21.72H134.2a2.13,2.13,0,1,0,0-4.25H124V7.35Z"/><path class="cls-1" d="M269,2.22a3,3,0,0,0-3,3v20L248.78,3.37a3,3,0,0,0-5.38,1.86V34a3,3,0,0,0,6,0v-20l17.2,21.9A3,3,0,0,0,272,34V5.23A3,3,0,0,0,269,2.22Z"/><path class="cls-1" d="M169.1,2.22H156.78a3,3,0,0,0-3,3V34a3,3,0,0,0,6,0V24.66h9.31a11.22,11.22,0,0,0,0-22.44Zm0,16.42h-9.31V8.24h9.31a5.2,5.2,0,1,1,0,10.4Z"/><path class="cls-1" d="M16.49,7.35a11.92,11.92,0,0,1,8.77,3.49,2.12,2.12,0,1,0,3-3A16.26,16.26,0,0,0,16.49,3.1,16.13,16.13,0,0,0,0,19.6,16.13,16.13,0,0,0,16.49,36.09,17,17,0,0,0,28.2,31.42a2.12,2.12,0,1,0-2.88-3.12,12.93,12.93,0,0,1-8.83,3.54A11.84,11.84,0,0,1,4.25,19.6,12,12,0,0,1,16.49,7.35Z"/><path class="cls-1" d="M94.21,3.1H83.94a2.12,2.12,0,0,0-2.12,2.13V34a2.12,2.12,0,0,0,2.12,2.12H94.21A16.13,16.13,0,0,0,110.7,19.6,16.13,16.13,0,0,0,94.21,3.1Zm0,28.74H86.07V7.35h8.14A12,12,0,0,1,106.45,19.6,11.84,11.84,0,0,1,94.21,31.84Z"/><path class="cls-1" d="M202.45,4.26l0-.07L202.31,4a.86.86,0,0,0-.07-.1.71.71,0,0,0-.1-.14l-.08-.11L202,3.55l-.1-.1-.11-.1a.52.52,0,0,1-.11-.1l-.12-.08a1,1,0,0,0-.13-.09L201.26,3l-.15-.09-.09,0h0l-.16-.06-.13-.05-.09,0a2.91,2.91,0,0,0-1.05-.12h0l-.21,0-.19,0-.17,0-.1,0-.19.06-.08,0-.2.08h0l-.07,0-.18.1-.09.06-.15.11-.1.08-.12.11-.1.09-.11.12-.09.11-.09.12-.09.13-.07.11a1.3,1.3,0,0,0-.08.17.56.56,0,0,0,0,.08L183.89,32.86a3,3,0,0,0,5.47,2.52l3.28-7.13,15-.06h.07l3.61,7.21A3,3,0,0,0,214,37.07a3.14,3.14,0,0,0,1.35-.32,3,3,0,0,0,1.34-4Zm-7,18,4.45-9.66,4.81,9.62Z"/><path class="cls-1" d="M229.06,2.6a3,3,0,0,0-3,3V34.12a3,3,0,1,0,6,0V5.61A3,3,0,0,0,229.06,2.6Z"/></svg>