<svg id="Layer_1" enable-background="new 0 0 512 512" height="512" viewBox="0 0 512 512" width="512" xmlns="http://www.w3.org/2000/svg"><g><g><path d="m291.98 349.971h-202.539c-5.524 0-10.002-4.478-10.002-10.002 0-5.523 4.478-10.002 10.002-10.002h202.539c5.524 0 10.002 4.478 10.002 10.002s-4.478 10.002-10.002 10.002z"/></g><g><path d="m315.881 183.473c-19.944 0-36.17 16.238-36.17 36.199 0 19.945 16.226 36.171 36.17 36.171 19.96 0 36.198-16.226 36.198-36.171 0-2.638-.291-5.209-.83-7.688l47.96-25.802c6.571 6.728 15.73 10.916 25.851 10.916 19.944 0 36.17-16.238 36.17-36.199 0-19.945-16.226-36.171-36.17-36.171-10.124 0-19.285 4.186-25.857 10.913l-47.955-25.799c.538-2.479.83-5.05.83-7.688 0-19.945-16.238-36.171-36.198-36.171-19.944 0-36.17 16.226-36.17 36.171 0 19.961 16.226 36.199 36.17 36.199 10.126 0 19.288-4.184 25.864-10.908l47.967 25.805c-.533 2.467-.821 5.025-.821 7.649 0 2.634.29 5.2.826 7.675l-47.971 25.808c-6.576-6.724-15.739-10.909-25.864-10.909zm0 52.366c-8.914 0-16.166-7.252-16.166-16.167 0-8.93 7.252-16.195 16.166-16.195 8.93 0 16.194 7.265 16.194 16.195 0 8.915-7.265 16.167-16.194 16.167zm109.179-91.107c8.914 0 16.166 7.252 16.166 16.167 0 8.93-7.252 16.195-16.166 16.195s-16.166-7.265-16.166-16.195c0-8.915 7.252-16.167 16.166-16.167zm-109.179-26.383c-8.914 0-16.166-7.265-16.166-16.195 0-8.915 7.252-16.167 16.166-16.167 8.93 0 16.194 7.252 16.194 16.167 0 8.93-7.265 16.195-16.194 16.195z"/><path d="m252.941 67.701c2.56 0 5.12-.977 7.073-2.929l.028-.028c3.905-3.906 3.891-10.224-.014-14.13-3.906-3.905-10.252-3.892-14.159.014-3.905 3.906-3.905 10.239 0 14.145 1.953 1.951 4.513 2.928 7.072 2.928z"/><path d="m163.466 297.718h48.594c5.524 0 10.002-4.478 10.002-10.002 0-5.523-4.478-10.002-10.002-10.002h-48.594c-5.524 0-10.002 4.478-10.002 10.002s4.478 10.002 10.002 10.002z"/><path d="m89.441 297.718h24.013c5.524 0 10.002-4.478 10.002-10.002 0-5.523-4.478-10.002-10.002-10.002h-24.013c-5.524 0-10.002 4.478-10.002 10.002s4.478 10.002 10.002 10.002z"/><path d="m341.963 382.19h-90.015c-5.524 0-10.002 4.478-10.002 10.002 0 5.523 4.478 10.002 10.002 10.002h90.015c5.524 0 10.002-4.478 10.002-10.002 0-5.523-4.478-10.002-10.002-10.002z"/><path d="m191.93 382.19h-102.489c-5.524 0-10.002 4.478-10.002 10.002 0 5.523 4.478 10.002 10.002 10.002h102.489c5.524 0 10.002-4.478 10.002-10.002 0-5.523-4.478-10.002-10.002-10.002z"/><path d="m466.409 50.626c-23.782-23.782-53.886-38.976-87.059-43.939-32.511-4.867-65.094.441-94.221 15.344-4.918 2.516-6.865 8.542-4.348 13.459s8.542 6.864 13.459 4.348c52.664-26.944 116.169-16.924 158.023 24.931 52.991 53.019 52.992 139.265 0 192.259-25.672 25.685-59.809 39.831-96.124 39.831s-70.452-14.146-96.125-39.833c-41.857-41.856-51.876-105.364-24.932-158.028 2.516-4.918.569-10.943-4.348-13.459-4.919-2.516-10.944-.568-13.459 4.348-14.903 29.129-20.209 61.711-15.344 94.224 2.165 14.467 6.276 28.35 12.195 41.379h-99.651c-63.122.001-114.475 51.355-114.475 114.479 0 28.714 10.78 56.222 30.354 77.456 17.348 18.819 40.156 31.188 64.99 35.412v44.229c0 3.664 2.004 7.035 5.223 8.786 1.493.813 3.138 1.216 4.779 1.216 1.895 0 3.786-.538 5.435-1.605l78.831-51.016h127.318c63.122 0 114.475-51.354 114.475-114.478 0-13.402-2.296-26.429-6.822-38.856 15.303-7.489 29.428-17.537 41.826-29.942 60.788-60.789 60.788-159.724 0-220.545zm-149.479 383.817h-130.273c-1.928 0-3.815.558-5.434 1.605l-65.875 42.632v-34.631c0-5.185-3.962-9.51-9.126-9.964-48.347-4.248-86.218-45.588-86.218-94.115 0-52.093 42.38-94.475 94.471-94.475h110.603c5.944 9.176 12.89 17.776 20.789 25.676 29.45 29.465 68.612 45.694 110.272 45.694 17.24 0 34.05-2.787 49.923-8.134 3.541 10.003 5.339 20.473 5.339 31.239 0 52.092-42.379 94.473-94.471 94.473z"/><path d="m89.441 349.971h202.539c5.524 0 10.002-4.478 10.002-10.002 0-5.523-4.478-10.002-10.002-10.002h-202.539c-5.524 0-10.002 4.478-10.002 10.002s4.478 10.002 10.002 10.002z"/></g></g></svg>